<mxfile host="Electron" agent="Mozilla/5.0 (Windows NT 10.0; Win64; x64) AppleWebKit/537.36 (KHTML, like Gecko) draw.io/27.0.9 Chrome/134.0.6998.205 Electron/35.4.0 Safari/537.36" version="27.0.9" pages="2">
  <diagram name="Acumulator" id="YACnFdKO3O3DydpfINg9">
    <mxGraphModel dx="693" dy="473" grid="1" gridSize="10" guides="1" tooltips="1" connect="1" arrows="1" fold="1" page="1" pageScale="1" pageWidth="827" pageHeight="1169" math="0" shadow="0">
      <root>
        <mxCell id="0" />
        <mxCell id="1" parent="0" />
        <mxCell id="hu0BPNsHJJ6EQQN8SyxH-1" value="&lt;font style=&quot;font-size: 14px;&quot;&gt;Systolic Array&lt;/font&gt;" style="rounded=0;whiteSpace=wrap;html=1;" vertex="1" parent="1">
          <mxGeometry x="280" y="310" width="300" height="20" as="geometry" />
        </mxCell>
        <mxCell id="hu0BPNsHJJ6EQQN8SyxH-2" value="" style="rounded=0;whiteSpace=wrap;html=1;" vertex="1" parent="1">
          <mxGeometry x="280" y="360" width="40" height="80" as="geometry" />
        </mxCell>
        <mxCell id="hu0BPNsHJJ6EQQN8SyxH-3" value="" style="endArrow=none;html=1;rounded=0;exitX=0;exitY=0.25;exitDx=0;exitDy=0;entryX=1;entryY=0.25;entryDx=0;entryDy=0;" edge="1" parent="1" source="hu0BPNsHJJ6EQQN8SyxH-2" target="hu0BPNsHJJ6EQQN8SyxH-2">
          <mxGeometry width="50" height="50" relative="1" as="geometry">
            <mxPoint x="340" y="430" as="sourcePoint" />
            <mxPoint x="390" y="380" as="targetPoint" />
          </mxGeometry>
        </mxCell>
        <mxCell id="hu0BPNsHJJ6EQQN8SyxH-4" value="" style="endArrow=none;html=1;rounded=0;exitX=0;exitY=0.5;exitDx=0;exitDy=0;entryX=1;entryY=0.5;entryDx=0;entryDy=0;" edge="1" parent="1" source="hu0BPNsHJJ6EQQN8SyxH-2" target="hu0BPNsHJJ6EQQN8SyxH-2">
          <mxGeometry width="50" height="50" relative="1" as="geometry">
            <mxPoint x="300" y="410" as="sourcePoint" />
            <mxPoint x="350" y="360" as="targetPoint" />
          </mxGeometry>
        </mxCell>
        <mxCell id="hu0BPNsHJJ6EQQN8SyxH-5" value="" style="endArrow=none;html=1;rounded=0;exitX=0;exitY=0.25;exitDx=0;exitDy=0;entryX=1;entryY=0.25;entryDx=0;entryDy=0;" edge="1" parent="1">
          <mxGeometry width="50" height="50" relative="1" as="geometry">
            <mxPoint x="280" y="370" as="sourcePoint" />
            <mxPoint x="320" y="370" as="targetPoint" />
          </mxGeometry>
        </mxCell>
        <mxCell id="hu0BPNsHJJ6EQQN8SyxH-6" value="" style="endArrow=none;html=1;rounded=0;exitX=0;exitY=0.25;exitDx=0;exitDy=0;entryX=1;entryY=0.25;entryDx=0;entryDy=0;" edge="1" parent="1">
          <mxGeometry width="50" height="50" relative="1" as="geometry">
            <mxPoint x="280" y="390" as="sourcePoint" />
            <mxPoint x="320" y="390" as="targetPoint" />
          </mxGeometry>
        </mxCell>
        <mxCell id="hu0BPNsHJJ6EQQN8SyxH-7" value="" style="endArrow=none;dashed=1;html=1;dashPattern=1 3;strokeWidth=2;rounded=0;" edge="1" parent="1">
          <mxGeometry width="50" height="50" relative="1" as="geometry">
            <mxPoint x="299.93" y="424" as="sourcePoint" />
            <mxPoint x="299.93" y="404" as="targetPoint" />
          </mxGeometry>
        </mxCell>
        <mxCell id="hu0BPNsHJJ6EQQN8SyxH-8" value="" style="endArrow=none;html=1;rounded=0;exitX=0;exitY=0.5;exitDx=0;exitDy=0;entryX=1;entryY=0.5;entryDx=0;entryDy=0;" edge="1" parent="1">
          <mxGeometry width="50" height="50" relative="1" as="geometry">
            <mxPoint x="280" y="430" as="sourcePoint" />
            <mxPoint x="320" y="430" as="targetPoint" />
          </mxGeometry>
        </mxCell>
        <mxCell id="hu0BPNsHJJ6EQQN8SyxH-12" value="" style="endArrow=classic;html=1;rounded=0;" edge="1" parent="1">
          <mxGeometry width="50" height="50" relative="1" as="geometry">
            <mxPoint x="299.86" y="330" as="sourcePoint" />
            <mxPoint x="299.86" y="360" as="targetPoint" />
          </mxGeometry>
        </mxCell>
        <mxCell id="hu0BPNsHJJ6EQQN8SyxH-13" value="" style="rounded=0;whiteSpace=wrap;html=1;" vertex="1" parent="1">
          <mxGeometry x="340" y="360" width="40" height="80" as="geometry" />
        </mxCell>
        <mxCell id="hu0BPNsHJJ6EQQN8SyxH-14" value="" style="endArrow=none;html=1;rounded=0;exitX=0;exitY=0.25;exitDx=0;exitDy=0;entryX=1;entryY=0.25;entryDx=0;entryDy=0;" edge="1" parent="1" source="hu0BPNsHJJ6EQQN8SyxH-13" target="hu0BPNsHJJ6EQQN8SyxH-13">
          <mxGeometry width="50" height="50" relative="1" as="geometry">
            <mxPoint x="400" y="430" as="sourcePoint" />
            <mxPoint x="450" y="380" as="targetPoint" />
          </mxGeometry>
        </mxCell>
        <mxCell id="hu0BPNsHJJ6EQQN8SyxH-15" value="" style="endArrow=none;html=1;rounded=0;exitX=0;exitY=0.5;exitDx=0;exitDy=0;entryX=1;entryY=0.5;entryDx=0;entryDy=0;" edge="1" parent="1" source="hu0BPNsHJJ6EQQN8SyxH-13" target="hu0BPNsHJJ6EQQN8SyxH-13">
          <mxGeometry width="50" height="50" relative="1" as="geometry">
            <mxPoint x="360" y="410" as="sourcePoint" />
            <mxPoint x="410" y="360" as="targetPoint" />
          </mxGeometry>
        </mxCell>
        <mxCell id="hu0BPNsHJJ6EQQN8SyxH-16" value="" style="endArrow=none;html=1;rounded=0;exitX=0;exitY=0.25;exitDx=0;exitDy=0;entryX=1;entryY=0.25;entryDx=0;entryDy=0;" edge="1" parent="1">
          <mxGeometry width="50" height="50" relative="1" as="geometry">
            <mxPoint x="340" y="370" as="sourcePoint" />
            <mxPoint x="380" y="370" as="targetPoint" />
          </mxGeometry>
        </mxCell>
        <mxCell id="hu0BPNsHJJ6EQQN8SyxH-17" value="" style="endArrow=none;html=1;rounded=0;exitX=0;exitY=0.25;exitDx=0;exitDy=0;entryX=1;entryY=0.25;entryDx=0;entryDy=0;" edge="1" parent="1">
          <mxGeometry width="50" height="50" relative="1" as="geometry">
            <mxPoint x="340" y="390" as="sourcePoint" />
            <mxPoint x="380" y="390" as="targetPoint" />
          </mxGeometry>
        </mxCell>
        <mxCell id="hu0BPNsHJJ6EQQN8SyxH-18" value="" style="endArrow=none;dashed=1;html=1;dashPattern=1 3;strokeWidth=2;rounded=0;" edge="1" parent="1">
          <mxGeometry width="50" height="50" relative="1" as="geometry">
            <mxPoint x="359.93" y="424" as="sourcePoint" />
            <mxPoint x="359.93" y="404" as="targetPoint" />
          </mxGeometry>
        </mxCell>
        <mxCell id="hu0BPNsHJJ6EQQN8SyxH-19" value="" style="endArrow=none;html=1;rounded=0;exitX=0;exitY=0.5;exitDx=0;exitDy=0;entryX=1;entryY=0.5;entryDx=0;entryDy=0;" edge="1" parent="1">
          <mxGeometry width="50" height="50" relative="1" as="geometry">
            <mxPoint x="340" y="430" as="sourcePoint" />
            <mxPoint x="380" y="430" as="targetPoint" />
          </mxGeometry>
        </mxCell>
        <mxCell id="hu0BPNsHJJ6EQQN8SyxH-20" value="" style="endArrow=classic;html=1;rounded=0;" edge="1" parent="1">
          <mxGeometry width="50" height="50" relative="1" as="geometry">
            <mxPoint x="359.86" y="330" as="sourcePoint" />
            <mxPoint x="359.86" y="360" as="targetPoint" />
          </mxGeometry>
        </mxCell>
        <mxCell id="hu0BPNsHJJ6EQQN8SyxH-21" value="" style="rounded=0;whiteSpace=wrap;html=1;" vertex="1" parent="1">
          <mxGeometry x="400" y="360" width="40" height="80" as="geometry" />
        </mxCell>
        <mxCell id="hu0BPNsHJJ6EQQN8SyxH-22" value="" style="endArrow=none;html=1;rounded=0;exitX=0;exitY=0.25;exitDx=0;exitDy=0;entryX=1;entryY=0.25;entryDx=0;entryDy=0;" edge="1" parent="1" source="hu0BPNsHJJ6EQQN8SyxH-21" target="hu0BPNsHJJ6EQQN8SyxH-21">
          <mxGeometry width="50" height="50" relative="1" as="geometry">
            <mxPoint x="460" y="430" as="sourcePoint" />
            <mxPoint x="510" y="380" as="targetPoint" />
          </mxGeometry>
        </mxCell>
        <mxCell id="hu0BPNsHJJ6EQQN8SyxH-23" value="" style="endArrow=none;html=1;rounded=0;exitX=0;exitY=0.5;exitDx=0;exitDy=0;entryX=1;entryY=0.5;entryDx=0;entryDy=0;" edge="1" parent="1" source="hu0BPNsHJJ6EQQN8SyxH-21" target="hu0BPNsHJJ6EQQN8SyxH-21">
          <mxGeometry width="50" height="50" relative="1" as="geometry">
            <mxPoint x="420" y="410" as="sourcePoint" />
            <mxPoint x="470" y="360" as="targetPoint" />
          </mxGeometry>
        </mxCell>
        <mxCell id="hu0BPNsHJJ6EQQN8SyxH-24" value="" style="endArrow=none;html=1;rounded=0;exitX=0;exitY=0.25;exitDx=0;exitDy=0;entryX=1;entryY=0.25;entryDx=0;entryDy=0;" edge="1" parent="1">
          <mxGeometry width="50" height="50" relative="1" as="geometry">
            <mxPoint x="400" y="370" as="sourcePoint" />
            <mxPoint x="440" y="370" as="targetPoint" />
          </mxGeometry>
        </mxCell>
        <mxCell id="hu0BPNsHJJ6EQQN8SyxH-25" value="" style="endArrow=none;html=1;rounded=0;exitX=0;exitY=0.25;exitDx=0;exitDy=0;entryX=1;entryY=0.25;entryDx=0;entryDy=0;" edge="1" parent="1">
          <mxGeometry width="50" height="50" relative="1" as="geometry">
            <mxPoint x="400" y="390" as="sourcePoint" />
            <mxPoint x="440" y="390" as="targetPoint" />
          </mxGeometry>
        </mxCell>
        <mxCell id="hu0BPNsHJJ6EQQN8SyxH-26" value="" style="endArrow=none;dashed=1;html=1;dashPattern=1 3;strokeWidth=2;rounded=0;" edge="1" parent="1">
          <mxGeometry width="50" height="50" relative="1" as="geometry">
            <mxPoint x="419.93" y="424" as="sourcePoint" />
            <mxPoint x="419.93" y="404" as="targetPoint" />
          </mxGeometry>
        </mxCell>
        <mxCell id="hu0BPNsHJJ6EQQN8SyxH-27" value="" style="endArrow=none;html=1;rounded=0;exitX=0;exitY=0.5;exitDx=0;exitDy=0;entryX=1;entryY=0.5;entryDx=0;entryDy=0;" edge="1" parent="1">
          <mxGeometry width="50" height="50" relative="1" as="geometry">
            <mxPoint x="400" y="430" as="sourcePoint" />
            <mxPoint x="440" y="430" as="targetPoint" />
          </mxGeometry>
        </mxCell>
        <mxCell id="hu0BPNsHJJ6EQQN8SyxH-28" value="" style="endArrow=classic;html=1;rounded=0;" edge="1" parent="1">
          <mxGeometry width="50" height="50" relative="1" as="geometry">
            <mxPoint x="419.86" y="330" as="sourcePoint" />
            <mxPoint x="419.86" y="360" as="targetPoint" />
          </mxGeometry>
        </mxCell>
        <mxCell id="hu0BPNsHJJ6EQQN8SyxH-30" value="" style="rounded=0;whiteSpace=wrap;html=1;" vertex="1" parent="1">
          <mxGeometry x="460" y="360" width="40" height="80" as="geometry" />
        </mxCell>
        <mxCell id="hu0BPNsHJJ6EQQN8SyxH-31" value="" style="endArrow=none;html=1;rounded=0;exitX=0;exitY=0.25;exitDx=0;exitDy=0;entryX=1;entryY=0.25;entryDx=0;entryDy=0;" edge="1" parent="1" source="hu0BPNsHJJ6EQQN8SyxH-30" target="hu0BPNsHJJ6EQQN8SyxH-30">
          <mxGeometry width="50" height="50" relative="1" as="geometry">
            <mxPoint x="520" y="430" as="sourcePoint" />
            <mxPoint x="570" y="380" as="targetPoint" />
          </mxGeometry>
        </mxCell>
        <mxCell id="hu0BPNsHJJ6EQQN8SyxH-32" value="" style="endArrow=none;html=1;rounded=0;exitX=0;exitY=0.5;exitDx=0;exitDy=0;entryX=1;entryY=0.5;entryDx=0;entryDy=0;" edge="1" parent="1" source="hu0BPNsHJJ6EQQN8SyxH-30" target="hu0BPNsHJJ6EQQN8SyxH-30">
          <mxGeometry width="50" height="50" relative="1" as="geometry">
            <mxPoint x="480" y="410" as="sourcePoint" />
            <mxPoint x="530" y="360" as="targetPoint" />
          </mxGeometry>
        </mxCell>
        <mxCell id="hu0BPNsHJJ6EQQN8SyxH-33" value="" style="endArrow=none;html=1;rounded=0;exitX=0;exitY=0.25;exitDx=0;exitDy=0;entryX=1;entryY=0.25;entryDx=0;entryDy=0;" edge="1" parent="1">
          <mxGeometry width="50" height="50" relative="1" as="geometry">
            <mxPoint x="460" y="370" as="sourcePoint" />
            <mxPoint x="500" y="370" as="targetPoint" />
          </mxGeometry>
        </mxCell>
        <mxCell id="hu0BPNsHJJ6EQQN8SyxH-34" value="" style="endArrow=none;html=1;rounded=0;exitX=0;exitY=0.25;exitDx=0;exitDy=0;entryX=1;entryY=0.25;entryDx=0;entryDy=0;" edge="1" parent="1">
          <mxGeometry width="50" height="50" relative="1" as="geometry">
            <mxPoint x="460" y="390" as="sourcePoint" />
            <mxPoint x="500" y="390" as="targetPoint" />
          </mxGeometry>
        </mxCell>
        <mxCell id="hu0BPNsHJJ6EQQN8SyxH-35" value="" style="endArrow=none;dashed=1;html=1;dashPattern=1 3;strokeWidth=2;rounded=0;" edge="1" parent="1">
          <mxGeometry width="50" height="50" relative="1" as="geometry">
            <mxPoint x="479.93" y="424" as="sourcePoint" />
            <mxPoint x="479.93" y="404" as="targetPoint" />
          </mxGeometry>
        </mxCell>
        <mxCell id="hu0BPNsHJJ6EQQN8SyxH-36" value="" style="endArrow=none;html=1;rounded=0;exitX=0;exitY=0.5;exitDx=0;exitDy=0;entryX=1;entryY=0.5;entryDx=0;entryDy=0;" edge="1" parent="1">
          <mxGeometry width="50" height="50" relative="1" as="geometry">
            <mxPoint x="460" y="430" as="sourcePoint" />
            <mxPoint x="500" y="430" as="targetPoint" />
          </mxGeometry>
        </mxCell>
        <mxCell id="hu0BPNsHJJ6EQQN8SyxH-37" value="" style="endArrow=classic;html=1;rounded=0;" edge="1" parent="1">
          <mxGeometry width="50" height="50" relative="1" as="geometry">
            <mxPoint x="479.86" y="330" as="sourcePoint" />
            <mxPoint x="479.86" y="360" as="targetPoint" />
          </mxGeometry>
        </mxCell>
        <mxCell id="hu0BPNsHJJ6EQQN8SyxH-38" value="" style="endArrow=none;dashed=1;html=1;dashPattern=1 3;strokeWidth=2;rounded=0;" edge="1" parent="1">
          <mxGeometry width="50" height="50" relative="1" as="geometry">
            <mxPoint x="510" y="399.89" as="sourcePoint" />
            <mxPoint x="530.39" y="399.89" as="targetPoint" />
          </mxGeometry>
        </mxCell>
        <mxCell id="hu0BPNsHJJ6EQQN8SyxH-40" value="" style="rounded=0;whiteSpace=wrap;html=1;" vertex="1" parent="1">
          <mxGeometry x="540" y="360" width="40" height="80" as="geometry" />
        </mxCell>
        <mxCell id="hu0BPNsHJJ6EQQN8SyxH-41" value="" style="endArrow=none;html=1;rounded=0;exitX=0;exitY=0.25;exitDx=0;exitDy=0;entryX=1;entryY=0.25;entryDx=0;entryDy=0;" edge="1" parent="1" source="hu0BPNsHJJ6EQQN8SyxH-40" target="hu0BPNsHJJ6EQQN8SyxH-40">
          <mxGeometry width="50" height="50" relative="1" as="geometry">
            <mxPoint x="600" y="430" as="sourcePoint" />
            <mxPoint x="650" y="380" as="targetPoint" />
          </mxGeometry>
        </mxCell>
        <mxCell id="hu0BPNsHJJ6EQQN8SyxH-42" value="" style="endArrow=none;html=1;rounded=0;exitX=0;exitY=0.5;exitDx=0;exitDy=0;entryX=1;entryY=0.5;entryDx=0;entryDy=0;" edge="1" parent="1" source="hu0BPNsHJJ6EQQN8SyxH-40" target="hu0BPNsHJJ6EQQN8SyxH-40">
          <mxGeometry width="50" height="50" relative="1" as="geometry">
            <mxPoint x="560" y="410" as="sourcePoint" />
            <mxPoint x="610" y="360" as="targetPoint" />
          </mxGeometry>
        </mxCell>
        <mxCell id="hu0BPNsHJJ6EQQN8SyxH-43" value="" style="endArrow=none;html=1;rounded=0;exitX=0;exitY=0.25;exitDx=0;exitDy=0;entryX=1;entryY=0.25;entryDx=0;entryDy=0;" edge="1" parent="1">
          <mxGeometry width="50" height="50" relative="1" as="geometry">
            <mxPoint x="540" y="370" as="sourcePoint" />
            <mxPoint x="580" y="370" as="targetPoint" />
          </mxGeometry>
        </mxCell>
        <mxCell id="hu0BPNsHJJ6EQQN8SyxH-44" value="" style="endArrow=none;html=1;rounded=0;exitX=0;exitY=0.25;exitDx=0;exitDy=0;entryX=1;entryY=0.25;entryDx=0;entryDy=0;" edge="1" parent="1">
          <mxGeometry width="50" height="50" relative="1" as="geometry">
            <mxPoint x="540" y="390" as="sourcePoint" />
            <mxPoint x="580" y="390" as="targetPoint" />
          </mxGeometry>
        </mxCell>
        <mxCell id="hu0BPNsHJJ6EQQN8SyxH-45" value="" style="endArrow=none;dashed=1;html=1;dashPattern=1 3;strokeWidth=2;rounded=0;" edge="1" parent="1">
          <mxGeometry width="50" height="50" relative="1" as="geometry">
            <mxPoint x="559.9300000000001" y="424" as="sourcePoint" />
            <mxPoint x="559.9300000000001" y="404" as="targetPoint" />
          </mxGeometry>
        </mxCell>
        <mxCell id="hu0BPNsHJJ6EQQN8SyxH-46" value="" style="endArrow=none;html=1;rounded=0;exitX=0;exitY=0.5;exitDx=0;exitDy=0;entryX=1;entryY=0.5;entryDx=0;entryDy=0;" edge="1" parent="1">
          <mxGeometry width="50" height="50" relative="1" as="geometry">
            <mxPoint x="540" y="430" as="sourcePoint" />
            <mxPoint x="580" y="430" as="targetPoint" />
          </mxGeometry>
        </mxCell>
        <mxCell id="hu0BPNsHJJ6EQQN8SyxH-47" value="" style="endArrow=classic;html=1;rounded=0;" edge="1" parent="1">
          <mxGeometry width="50" height="50" relative="1" as="geometry">
            <mxPoint x="559.86" y="330" as="sourcePoint" />
            <mxPoint x="559.86" y="360" as="targetPoint" />
          </mxGeometry>
        </mxCell>
        <mxCell id="hu0BPNsHJJ6EQQN8SyxH-48" value="" style="endArrow=classic;html=1;rounded=0;entryX=0.25;entryY=1;entryDx=0;entryDy=0;" edge="1" parent="1" target="hu0BPNsHJJ6EQQN8SyxH-2">
          <mxGeometry width="50" height="50" relative="1" as="geometry">
            <mxPoint x="290" y="460" as="sourcePoint" />
            <mxPoint x="290" y="460" as="targetPoint" />
          </mxGeometry>
        </mxCell>
        <mxCell id="hu0BPNsHJJ6EQQN8SyxH-50" value="" style="endArrow=none;html=1;rounded=0;" edge="1" parent="1">
          <mxGeometry width="50" height="50" relative="1" as="geometry">
            <mxPoint x="250" y="460" as="sourcePoint" />
            <mxPoint x="550" y="460" as="targetPoint" />
          </mxGeometry>
        </mxCell>
        <mxCell id="hu0BPNsHJJ6EQQN8SyxH-51" value="" style="endArrow=classic;html=1;rounded=0;entryX=0.25;entryY=1;entryDx=0;entryDy=0;" edge="1" parent="1">
          <mxGeometry width="50" height="50" relative="1" as="geometry">
            <mxPoint x="350" y="460" as="sourcePoint" />
            <mxPoint x="350" y="440" as="targetPoint" />
          </mxGeometry>
        </mxCell>
        <mxCell id="hu0BPNsHJJ6EQQN8SyxH-52" value="" style="endArrow=classic;html=1;rounded=0;entryX=0.25;entryY=1;entryDx=0;entryDy=0;" edge="1" parent="1">
          <mxGeometry width="50" height="50" relative="1" as="geometry">
            <mxPoint x="410" y="460" as="sourcePoint" />
            <mxPoint x="410" y="440" as="targetPoint" />
          </mxGeometry>
        </mxCell>
        <mxCell id="hu0BPNsHJJ6EQQN8SyxH-53" value="" style="endArrow=classic;html=1;rounded=0;entryX=0.25;entryY=1;entryDx=0;entryDy=0;" edge="1" parent="1">
          <mxGeometry width="50" height="50" relative="1" as="geometry">
            <mxPoint x="470" y="460" as="sourcePoint" />
            <mxPoint x="470" y="440" as="targetPoint" />
          </mxGeometry>
        </mxCell>
        <mxCell id="hu0BPNsHJJ6EQQN8SyxH-55" value="" style="endArrow=classic;html=1;rounded=0;entryX=0.25;entryY=1;entryDx=0;entryDy=0;" edge="1" parent="1">
          <mxGeometry width="50" height="50" relative="1" as="geometry">
            <mxPoint x="470" y="460" as="sourcePoint" />
            <mxPoint x="470" y="440" as="targetPoint" />
          </mxGeometry>
        </mxCell>
        <mxCell id="hu0BPNsHJJ6EQQN8SyxH-56" value="" style="endArrow=classic;html=1;rounded=0;entryX=0.25;entryY=1;entryDx=0;entryDy=0;" edge="1" parent="1">
          <mxGeometry width="50" height="50" relative="1" as="geometry">
            <mxPoint x="470" y="460" as="sourcePoint" />
            <mxPoint x="470" y="440" as="targetPoint" />
          </mxGeometry>
        </mxCell>
        <mxCell id="hu0BPNsHJJ6EQQN8SyxH-57" value="" style="endArrow=classic;html=1;rounded=0;entryX=0.25;entryY=1;entryDx=0;entryDy=0;" edge="1" parent="1">
          <mxGeometry width="50" height="50" relative="1" as="geometry">
            <mxPoint x="470" y="460" as="sourcePoint" />
            <mxPoint x="470" y="440" as="targetPoint" />
          </mxGeometry>
        </mxCell>
        <mxCell id="hu0BPNsHJJ6EQQN8SyxH-58" value="" style="endArrow=classic;html=1;rounded=0;entryX=0.25;entryY=1;entryDx=0;entryDy=0;" edge="1" parent="1">
          <mxGeometry width="50" height="50" relative="1" as="geometry">
            <mxPoint x="550" y="460" as="sourcePoint" />
            <mxPoint x="550" y="440" as="targetPoint" />
          </mxGeometry>
        </mxCell>
        <mxCell id="hu0BPNsHJJ6EQQN8SyxH-59" value="rd_addr" style="text;html=1;align=center;verticalAlign=middle;resizable=0;points=[];autosize=1;strokeColor=none;fillColor=none;" vertex="1" parent="1">
          <mxGeometry x="194" y="444" width="60" height="30" as="geometry" />
        </mxCell>
        <mxCell id="hu0BPNsHJJ6EQQN8SyxH-60" value="" style="endArrow=classic;html=1;rounded=0;entryX=0.75;entryY=1;entryDx=0;entryDy=0;jumpStyle=arc;" edge="1" parent="1" target="hu0BPNsHJJ6EQQN8SyxH-2">
          <mxGeometry width="50" height="50" relative="1" as="geometry">
            <mxPoint x="310" y="520" as="sourcePoint" />
            <mxPoint x="320" y="510" as="targetPoint" />
          </mxGeometry>
        </mxCell>
        <mxCell id="hu0BPNsHJJ6EQQN8SyxH-61" value="" style="endArrow=classic;html=1;rounded=0;entryX=0.75;entryY=1;entryDx=0;entryDy=0;jumpStyle=arc;" edge="1" parent="1">
          <mxGeometry width="50" height="50" relative="1" as="geometry">
            <mxPoint x="370" y="480" as="sourcePoint" />
            <mxPoint x="370" y="440" as="targetPoint" />
          </mxGeometry>
        </mxCell>
        <mxCell id="hu0BPNsHJJ6EQQN8SyxH-62" value="" style="endArrow=classic;html=1;rounded=0;entryX=0.75;entryY=1;entryDx=0;entryDy=0;jumpStyle=arc;" edge="1" parent="1">
          <mxGeometry width="50" height="50" relative="1" as="geometry">
            <mxPoint x="430" y="480" as="sourcePoint" />
            <mxPoint x="430" y="440" as="targetPoint" />
          </mxGeometry>
        </mxCell>
        <mxCell id="hu0BPNsHJJ6EQQN8SyxH-63" value="" style="endArrow=classic;html=1;rounded=0;entryX=0.75;entryY=1;entryDx=0;entryDy=0;jumpStyle=arc;" edge="1" parent="1">
          <mxGeometry width="50" height="50" relative="1" as="geometry">
            <mxPoint x="490" y="480" as="sourcePoint" />
            <mxPoint x="490" y="440" as="targetPoint" />
          </mxGeometry>
        </mxCell>
        <mxCell id="hu0BPNsHJJ6EQQN8SyxH-64" value="" style="endArrow=classic;html=1;rounded=0;entryX=0.75;entryY=1;entryDx=0;entryDy=0;jumpStyle=arc;" edge="1" parent="1">
          <mxGeometry width="50" height="50" relative="1" as="geometry">
            <mxPoint x="570" y="480" as="sourcePoint" />
            <mxPoint x="570" y="440" as="targetPoint" />
          </mxGeometry>
        </mxCell>
        <mxCell id="IdBzwIPy-GGpvt21iT3s-36" value="" style="group" vertex="1" connectable="0" parent="1">
          <mxGeometry x="360" y="640" width="41" height="33" as="geometry" />
        </mxCell>
        <mxCell id="IdBzwIPy-GGpvt21iT3s-1" value="" style="endArrow=none;html=1;rounded=0;" edge="1" parent="IdBzwIPy-GGpvt21iT3s-36">
          <mxGeometry width="50" height="50" relative="1" as="geometry">
            <mxPoint x="41" y="24" as="sourcePoint" />
            <mxPoint x="1" y="24" as="targetPoint" />
          </mxGeometry>
        </mxCell>
        <mxCell id="IdBzwIPy-GGpvt21iT3s-2" value="" style="endArrow=none;html=1;rounded=0;" edge="1" parent="IdBzwIPy-GGpvt21iT3s-36">
          <mxGeometry width="50" height="50" relative="1" as="geometry">
            <mxPoint x="31" y="9" as="sourcePoint" />
            <mxPoint x="11" y="9" as="targetPoint" />
          </mxGeometry>
        </mxCell>
        <mxCell id="IdBzwIPy-GGpvt21iT3s-3" value="" style="endArrow=none;html=1;rounded=0;" edge="1" parent="IdBzwIPy-GGpvt21iT3s-36">
          <mxGeometry width="50" height="50" relative="1" as="geometry">
            <mxPoint x="11" y="9" as="sourcePoint" />
            <mxPoint x="1" y="24" as="targetPoint" />
          </mxGeometry>
        </mxCell>
        <mxCell id="IdBzwIPy-GGpvt21iT3s-7" value="" style="endArrow=none;html=1;rounded=0;" edge="1" parent="IdBzwIPy-GGpvt21iT3s-36">
          <mxGeometry width="50" height="50" relative="1" as="geometry">
            <mxPoint x="11" y="33" as="sourcePoint" />
            <mxPoint x="10.92999999999995" y="24" as="targetPoint" />
          </mxGeometry>
        </mxCell>
        <mxCell id="IdBzwIPy-GGpvt21iT3s-14" value="&lt;font style=&quot;font-size: 8px;&quot;&gt;Mux&lt;/font&gt;" style="text;html=1;align=center;verticalAlign=middle;resizable=0;points=[];autosize=1;strokeColor=none;fillColor=none;" vertex="1" parent="IdBzwIPy-GGpvt21iT3s-36">
          <mxGeometry y="1" width="40" height="30" as="geometry" />
        </mxCell>
        <mxCell id="IdBzwIPy-GGpvt21iT3s-15" value="" style="endArrow=none;html=1;rounded=0;" edge="1" parent="IdBzwIPy-GGpvt21iT3s-36">
          <mxGeometry width="50" height="50" relative="1" as="geometry">
            <mxPoint x="31" y="9" as="sourcePoint" />
            <mxPoint x="41" y="24" as="targetPoint" />
          </mxGeometry>
        </mxCell>
        <mxCell id="IdBzwIPy-GGpvt21iT3s-17" value="" style="endArrow=none;html=1;rounded=0;" edge="1" parent="IdBzwIPy-GGpvt21iT3s-36">
          <mxGeometry width="50" height="50" relative="1" as="geometry">
            <mxPoint x="31.07000000000005" y="33" as="sourcePoint" />
            <mxPoint x="31" y="24" as="targetPoint" />
          </mxGeometry>
        </mxCell>
        <mxCell id="IdBzwIPy-GGpvt21iT3s-19" value="" style="endArrow=none;html=1;rounded=0;" edge="1" parent="IdBzwIPy-GGpvt21iT3s-36">
          <mxGeometry width="50" height="50" relative="1" as="geometry">
            <mxPoint x="21.07000000000005" y="9" as="sourcePoint" />
            <mxPoint x="21" as="targetPoint" />
          </mxGeometry>
        </mxCell>
        <mxCell id="IdBzwIPy-GGpvt21iT3s-46" value="" style="group" vertex="1" connectable="0" parent="1">
          <mxGeometry x="550" y="654" width="41" height="33" as="geometry" />
        </mxCell>
        <mxCell id="IdBzwIPy-GGpvt21iT3s-47" value="" style="endArrow=none;html=1;rounded=0;" edge="1" parent="IdBzwIPy-GGpvt21iT3s-46">
          <mxGeometry width="50" height="50" relative="1" as="geometry">
            <mxPoint x="41" y="24" as="sourcePoint" />
            <mxPoint x="1" y="24" as="targetPoint" />
          </mxGeometry>
        </mxCell>
        <mxCell id="IdBzwIPy-GGpvt21iT3s-48" value="" style="endArrow=none;html=1;rounded=0;" edge="1" parent="IdBzwIPy-GGpvt21iT3s-46">
          <mxGeometry width="50" height="50" relative="1" as="geometry">
            <mxPoint x="31" y="9" as="sourcePoint" />
            <mxPoint x="11" y="9" as="targetPoint" />
          </mxGeometry>
        </mxCell>
        <mxCell id="IdBzwIPy-GGpvt21iT3s-49" value="" style="endArrow=none;html=1;rounded=0;" edge="1" parent="IdBzwIPy-GGpvt21iT3s-46">
          <mxGeometry width="50" height="50" relative="1" as="geometry">
            <mxPoint x="11" y="9" as="sourcePoint" />
            <mxPoint x="1" y="24" as="targetPoint" />
          </mxGeometry>
        </mxCell>
        <mxCell id="IdBzwIPy-GGpvt21iT3s-50" value="" style="endArrow=none;html=1;rounded=0;" edge="1" parent="IdBzwIPy-GGpvt21iT3s-46">
          <mxGeometry width="50" height="50" relative="1" as="geometry">
            <mxPoint x="11" y="33" as="sourcePoint" />
            <mxPoint x="10.92999999999995" y="24" as="targetPoint" />
          </mxGeometry>
        </mxCell>
        <mxCell id="IdBzwIPy-GGpvt21iT3s-51" value="&lt;font style=&quot;font-size: 8px;&quot;&gt;Mux&lt;/font&gt;" style="text;html=1;align=center;verticalAlign=middle;resizable=0;points=[];autosize=1;strokeColor=none;fillColor=none;" vertex="1" parent="IdBzwIPy-GGpvt21iT3s-46">
          <mxGeometry y="1" width="40" height="30" as="geometry" />
        </mxCell>
        <mxCell id="IdBzwIPy-GGpvt21iT3s-52" value="" style="endArrow=none;html=1;rounded=0;" edge="1" parent="IdBzwIPy-GGpvt21iT3s-46">
          <mxGeometry width="50" height="50" relative="1" as="geometry">
            <mxPoint x="31" y="9" as="sourcePoint" />
            <mxPoint x="41" y="24" as="targetPoint" />
          </mxGeometry>
        </mxCell>
        <mxCell id="IdBzwIPy-GGpvt21iT3s-53" value="" style="endArrow=none;html=1;rounded=0;" edge="1" parent="IdBzwIPy-GGpvt21iT3s-46">
          <mxGeometry width="50" height="50" relative="1" as="geometry">
            <mxPoint x="31.07000000000005" y="33" as="sourcePoint" />
            <mxPoint x="31" y="24" as="targetPoint" />
          </mxGeometry>
        </mxCell>
        <mxCell id="IdBzwIPy-GGpvt21iT3s-54" value="" style="endArrow=none;html=1;rounded=0;" edge="1" parent="IdBzwIPy-GGpvt21iT3s-46">
          <mxGeometry width="50" height="50" relative="1" as="geometry">
            <mxPoint x="21.07000000000005" y="9" as="sourcePoint" />
            <mxPoint x="21" as="targetPoint" />
          </mxGeometry>
        </mxCell>
        <mxCell id="IdBzwIPy-GGpvt21iT3s-55" value="" style="group" vertex="1" connectable="0" parent="1">
          <mxGeometry x="349" y="471" width="41" height="33" as="geometry" />
        </mxCell>
        <mxCell id="IdBzwIPy-GGpvt21iT3s-56" value="" style="endArrow=none;html=1;rounded=0;" edge="1" parent="IdBzwIPy-GGpvt21iT3s-55">
          <mxGeometry width="50" height="50" relative="1" as="geometry">
            <mxPoint x="41" y="24" as="sourcePoint" />
            <mxPoint x="1" y="24" as="targetPoint" />
          </mxGeometry>
        </mxCell>
        <mxCell id="IdBzwIPy-GGpvt21iT3s-57" value="" style="endArrow=none;html=1;rounded=0;" edge="1" parent="IdBzwIPy-GGpvt21iT3s-55">
          <mxGeometry width="50" height="50" relative="1" as="geometry">
            <mxPoint x="31" y="9" as="sourcePoint" />
            <mxPoint x="11" y="9" as="targetPoint" />
          </mxGeometry>
        </mxCell>
        <mxCell id="IdBzwIPy-GGpvt21iT3s-58" value="" style="endArrow=none;html=1;rounded=0;" edge="1" parent="IdBzwIPy-GGpvt21iT3s-55">
          <mxGeometry width="50" height="50" relative="1" as="geometry">
            <mxPoint x="11" y="9" as="sourcePoint" />
            <mxPoint x="1" y="24" as="targetPoint" />
          </mxGeometry>
        </mxCell>
        <mxCell id="IdBzwIPy-GGpvt21iT3s-59" value="" style="endArrow=none;html=1;rounded=0;" edge="1" parent="IdBzwIPy-GGpvt21iT3s-55">
          <mxGeometry width="50" height="50" relative="1" as="geometry">
            <mxPoint x="11" y="33" as="sourcePoint" />
            <mxPoint x="10.92999999999995" y="24" as="targetPoint" />
          </mxGeometry>
        </mxCell>
        <mxCell id="IdBzwIPy-GGpvt21iT3s-60" value="&lt;font style=&quot;font-size: 8px;&quot;&gt;Mux&lt;/font&gt;" style="text;html=1;align=center;verticalAlign=middle;resizable=0;points=[];autosize=1;strokeColor=none;fillColor=none;" vertex="1" parent="IdBzwIPy-GGpvt21iT3s-55">
          <mxGeometry y="1" width="40" height="30" as="geometry" />
        </mxCell>
        <mxCell id="IdBzwIPy-GGpvt21iT3s-61" value="" style="endArrow=none;html=1;rounded=0;" edge="1" parent="IdBzwIPy-GGpvt21iT3s-55">
          <mxGeometry width="50" height="50" relative="1" as="geometry">
            <mxPoint x="31" y="9" as="sourcePoint" />
            <mxPoint x="41" y="24" as="targetPoint" />
          </mxGeometry>
        </mxCell>
        <mxCell id="IdBzwIPy-GGpvt21iT3s-62" value="" style="endArrow=none;html=1;rounded=0;" edge="1" parent="IdBzwIPy-GGpvt21iT3s-55">
          <mxGeometry width="50" height="50" relative="1" as="geometry">
            <mxPoint x="31.07000000000005" y="33" as="sourcePoint" />
            <mxPoint x="31" y="24" as="targetPoint" />
          </mxGeometry>
        </mxCell>
        <mxCell id="IdBzwIPy-GGpvt21iT3s-63" value="" style="endArrow=none;html=1;rounded=0;" edge="1" parent="IdBzwIPy-GGpvt21iT3s-55">
          <mxGeometry width="50" height="50" relative="1" as="geometry">
            <mxPoint x="21.07000000000005" y="9" as="sourcePoint" />
            <mxPoint x="21" as="targetPoint" />
          </mxGeometry>
        </mxCell>
        <mxCell id="IdBzwIPy-GGpvt21iT3s-99" value="" style="endArrow=none;html=1;rounded=0;startSize=6;sourcePerimeterSpacing=0;" edge="1" parent="IdBzwIPy-GGpvt21iT3s-55">
          <mxGeometry width="50" height="50" relative="1" as="geometry">
            <mxPoint x="31" y="38" as="sourcePoint" />
            <mxPoint x="31" y="31" as="targetPoint" />
          </mxGeometry>
        </mxCell>
        <mxCell id="IdBzwIPy-GGpvt21iT3s-64" value="" style="group" vertex="1" connectable="0" parent="1">
          <mxGeometry x="409" y="471" width="41" height="33" as="geometry" />
        </mxCell>
        <mxCell id="IdBzwIPy-GGpvt21iT3s-65" value="" style="endArrow=none;html=1;rounded=0;" edge="1" parent="IdBzwIPy-GGpvt21iT3s-64">
          <mxGeometry width="50" height="50" relative="1" as="geometry">
            <mxPoint x="41" y="24" as="sourcePoint" />
            <mxPoint x="1" y="24" as="targetPoint" />
          </mxGeometry>
        </mxCell>
        <mxCell id="IdBzwIPy-GGpvt21iT3s-66" value="" style="endArrow=none;html=1;rounded=0;" edge="1" parent="IdBzwIPy-GGpvt21iT3s-64">
          <mxGeometry width="50" height="50" relative="1" as="geometry">
            <mxPoint x="31" y="9" as="sourcePoint" />
            <mxPoint x="11" y="9" as="targetPoint" />
          </mxGeometry>
        </mxCell>
        <mxCell id="IdBzwIPy-GGpvt21iT3s-67" value="" style="endArrow=none;html=1;rounded=0;" edge="1" parent="IdBzwIPy-GGpvt21iT3s-64">
          <mxGeometry width="50" height="50" relative="1" as="geometry">
            <mxPoint x="11" y="9" as="sourcePoint" />
            <mxPoint x="1" y="24" as="targetPoint" />
          </mxGeometry>
        </mxCell>
        <mxCell id="IdBzwIPy-GGpvt21iT3s-68" value="" style="endArrow=none;html=1;rounded=0;" edge="1" parent="IdBzwIPy-GGpvt21iT3s-64">
          <mxGeometry width="50" height="50" relative="1" as="geometry">
            <mxPoint x="11" y="33" as="sourcePoint" />
            <mxPoint x="10.92999999999995" y="24" as="targetPoint" />
          </mxGeometry>
        </mxCell>
        <mxCell id="IdBzwIPy-GGpvt21iT3s-69" value="&lt;font style=&quot;font-size: 8px;&quot;&gt;Mux&lt;/font&gt;" style="text;html=1;align=center;verticalAlign=middle;resizable=0;points=[];autosize=1;strokeColor=none;fillColor=none;" vertex="1" parent="IdBzwIPy-GGpvt21iT3s-64">
          <mxGeometry y="1" width="40" height="30" as="geometry" />
        </mxCell>
        <mxCell id="IdBzwIPy-GGpvt21iT3s-70" value="" style="endArrow=none;html=1;rounded=0;" edge="1" parent="IdBzwIPy-GGpvt21iT3s-64">
          <mxGeometry width="50" height="50" relative="1" as="geometry">
            <mxPoint x="31" y="9" as="sourcePoint" />
            <mxPoint x="41" y="24" as="targetPoint" />
          </mxGeometry>
        </mxCell>
        <mxCell id="IdBzwIPy-GGpvt21iT3s-71" value="" style="endArrow=none;html=1;rounded=0;" edge="1" parent="IdBzwIPy-GGpvt21iT3s-64">
          <mxGeometry width="50" height="50" relative="1" as="geometry">
            <mxPoint x="31.07000000000005" y="33" as="sourcePoint" />
            <mxPoint x="31" y="24" as="targetPoint" />
          </mxGeometry>
        </mxCell>
        <mxCell id="IdBzwIPy-GGpvt21iT3s-72" value="" style="endArrow=none;html=1;rounded=0;" edge="1" parent="IdBzwIPy-GGpvt21iT3s-64">
          <mxGeometry width="50" height="50" relative="1" as="geometry">
            <mxPoint x="21.07000000000005" y="9" as="sourcePoint" />
            <mxPoint x="21" as="targetPoint" />
          </mxGeometry>
        </mxCell>
        <mxCell id="IdBzwIPy-GGpvt21iT3s-73" value="" style="group" vertex="1" connectable="0" parent="1">
          <mxGeometry x="469" y="471" width="41" height="33" as="geometry" />
        </mxCell>
        <mxCell id="IdBzwIPy-GGpvt21iT3s-74" value="" style="endArrow=none;html=1;rounded=0;" edge="1" parent="IdBzwIPy-GGpvt21iT3s-73">
          <mxGeometry width="50" height="50" relative="1" as="geometry">
            <mxPoint x="41" y="24" as="sourcePoint" />
            <mxPoint x="1" y="24" as="targetPoint" />
          </mxGeometry>
        </mxCell>
        <mxCell id="IdBzwIPy-GGpvt21iT3s-75" value="" style="endArrow=none;html=1;rounded=0;" edge="1" parent="IdBzwIPy-GGpvt21iT3s-73">
          <mxGeometry width="50" height="50" relative="1" as="geometry">
            <mxPoint x="31" y="9" as="sourcePoint" />
            <mxPoint x="11" y="9" as="targetPoint" />
          </mxGeometry>
        </mxCell>
        <mxCell id="IdBzwIPy-GGpvt21iT3s-76" value="" style="endArrow=none;html=1;rounded=0;" edge="1" parent="IdBzwIPy-GGpvt21iT3s-73">
          <mxGeometry width="50" height="50" relative="1" as="geometry">
            <mxPoint x="11" y="9" as="sourcePoint" />
            <mxPoint x="1" y="24" as="targetPoint" />
          </mxGeometry>
        </mxCell>
        <mxCell id="IdBzwIPy-GGpvt21iT3s-77" value="" style="endArrow=none;html=1;rounded=0;" edge="1" parent="IdBzwIPy-GGpvt21iT3s-73">
          <mxGeometry width="50" height="50" relative="1" as="geometry">
            <mxPoint x="11" y="33" as="sourcePoint" />
            <mxPoint x="10.92999999999995" y="24" as="targetPoint" />
          </mxGeometry>
        </mxCell>
        <mxCell id="IdBzwIPy-GGpvt21iT3s-78" value="&lt;font style=&quot;font-size: 8px;&quot;&gt;Mux&lt;/font&gt;" style="text;html=1;align=center;verticalAlign=middle;resizable=0;points=[];autosize=1;strokeColor=none;fillColor=none;" vertex="1" parent="IdBzwIPy-GGpvt21iT3s-73">
          <mxGeometry y="1" width="40" height="30" as="geometry" />
        </mxCell>
        <mxCell id="IdBzwIPy-GGpvt21iT3s-79" value="" style="endArrow=none;html=1;rounded=0;" edge="1" parent="IdBzwIPy-GGpvt21iT3s-73">
          <mxGeometry width="50" height="50" relative="1" as="geometry">
            <mxPoint x="31" y="9" as="sourcePoint" />
            <mxPoint x="41" y="24" as="targetPoint" />
          </mxGeometry>
        </mxCell>
        <mxCell id="IdBzwIPy-GGpvt21iT3s-80" value="" style="endArrow=none;html=1;rounded=0;" edge="1" parent="IdBzwIPy-GGpvt21iT3s-73">
          <mxGeometry width="50" height="50" relative="1" as="geometry">
            <mxPoint x="31.07000000000005" y="33" as="sourcePoint" />
            <mxPoint x="31" y="24" as="targetPoint" />
          </mxGeometry>
        </mxCell>
        <mxCell id="IdBzwIPy-GGpvt21iT3s-81" value="" style="endArrow=none;html=1;rounded=0;" edge="1" parent="IdBzwIPy-GGpvt21iT3s-73">
          <mxGeometry width="50" height="50" relative="1" as="geometry">
            <mxPoint x="21.07000000000005" y="9" as="sourcePoint" />
            <mxPoint x="21" as="targetPoint" />
          </mxGeometry>
        </mxCell>
        <mxCell id="IdBzwIPy-GGpvt21iT3s-83" value="" style="group" vertex="1" connectable="0" parent="1">
          <mxGeometry x="549" y="471" width="41" height="33" as="geometry" />
        </mxCell>
        <mxCell id="IdBzwIPy-GGpvt21iT3s-84" value="" style="endArrow=none;html=1;rounded=0;" edge="1" parent="IdBzwIPy-GGpvt21iT3s-83">
          <mxGeometry width="50" height="50" relative="1" as="geometry">
            <mxPoint x="41" y="24" as="sourcePoint" />
            <mxPoint x="1" y="24" as="targetPoint" />
          </mxGeometry>
        </mxCell>
        <mxCell id="IdBzwIPy-GGpvt21iT3s-85" value="" style="endArrow=none;html=1;rounded=0;" edge="1" parent="IdBzwIPy-GGpvt21iT3s-83">
          <mxGeometry width="50" height="50" relative="1" as="geometry">
            <mxPoint x="31" y="9" as="sourcePoint" />
            <mxPoint x="11" y="9" as="targetPoint" />
          </mxGeometry>
        </mxCell>
        <mxCell id="IdBzwIPy-GGpvt21iT3s-86" value="" style="endArrow=none;html=1;rounded=0;" edge="1" parent="IdBzwIPy-GGpvt21iT3s-83">
          <mxGeometry width="50" height="50" relative="1" as="geometry">
            <mxPoint x="11" y="9" as="sourcePoint" />
            <mxPoint x="1" y="24" as="targetPoint" />
          </mxGeometry>
        </mxCell>
        <mxCell id="IdBzwIPy-GGpvt21iT3s-87" value="" style="endArrow=none;html=1;rounded=0;" edge="1" parent="IdBzwIPy-GGpvt21iT3s-83">
          <mxGeometry width="50" height="50" relative="1" as="geometry">
            <mxPoint x="11" y="33" as="sourcePoint" />
            <mxPoint x="10.92999999999995" y="24" as="targetPoint" />
          </mxGeometry>
        </mxCell>
        <mxCell id="IdBzwIPy-GGpvt21iT3s-88" value="&lt;font style=&quot;font-size: 8px;&quot;&gt;Mux&lt;/font&gt;" style="text;html=1;align=center;verticalAlign=middle;resizable=0;points=[];autosize=1;strokeColor=none;fillColor=none;" vertex="1" parent="IdBzwIPy-GGpvt21iT3s-83">
          <mxGeometry y="1" width="40" height="30" as="geometry" />
        </mxCell>
        <mxCell id="IdBzwIPy-GGpvt21iT3s-89" value="" style="endArrow=none;html=1;rounded=0;" edge="1" parent="IdBzwIPy-GGpvt21iT3s-83">
          <mxGeometry width="50" height="50" relative="1" as="geometry">
            <mxPoint x="31" y="9" as="sourcePoint" />
            <mxPoint x="41" y="24" as="targetPoint" />
          </mxGeometry>
        </mxCell>
        <mxCell id="IdBzwIPy-GGpvt21iT3s-90" value="" style="endArrow=none;html=1;rounded=0;" edge="1" parent="IdBzwIPy-GGpvt21iT3s-83">
          <mxGeometry width="50" height="50" relative="1" as="geometry">
            <mxPoint x="31.07000000000005" y="33" as="sourcePoint" />
            <mxPoint x="31" y="24" as="targetPoint" />
          </mxGeometry>
        </mxCell>
        <mxCell id="IdBzwIPy-GGpvt21iT3s-91" value="" style="endArrow=none;html=1;rounded=0;" edge="1" parent="IdBzwIPy-GGpvt21iT3s-83">
          <mxGeometry width="50" height="50" relative="1" as="geometry">
            <mxPoint x="21.07000000000005" y="9" as="sourcePoint" />
            <mxPoint x="21" as="targetPoint" />
          </mxGeometry>
        </mxCell>
        <mxCell id="IdBzwIPy-GGpvt21iT3s-93" value="" style="endArrow=none;dashed=1;html=1;dashPattern=1 3;strokeWidth=2;rounded=0;" edge="1" parent="1">
          <mxGeometry width="50" height="50" relative="1" as="geometry">
            <mxPoint x="520.61" y="488.3" as="sourcePoint" />
            <mxPoint x="541" y="488.3" as="targetPoint" />
          </mxGeometry>
        </mxCell>
        <mxCell id="IdBzwIPy-GGpvt21iT3s-98" value="" style="endArrow=none;html=1;rounded=0;" edge="1" parent="1">
          <mxGeometry width="50" height="50" relative="1" as="geometry">
            <mxPoint x="380" y="509" as="sourcePoint" />
            <mxPoint x="560" y="509" as="targetPoint" />
          </mxGeometry>
        </mxCell>
      </root>
    </mxGraphModel>
  </diagram>
  <diagram id="JinlsAMsykiDfdxuIe7Z" name="mux">
    <mxGraphModel dx="1213" dy="828" grid="1" gridSize="10" guides="1" tooltips="1" connect="1" arrows="1" fold="1" page="1" pageScale="1" pageWidth="827" pageHeight="1169" math="0" shadow="0">
      <root>
        <mxCell id="0" />
        <mxCell id="1" parent="0" />
        <mxCell id="iMMtd4yUTlGFSOH0DQqw-1" value="" style="endArrow=none;html=1;rounded=0;" edge="1" parent="1">
          <mxGeometry width="50" height="50" relative="1" as="geometry">
            <mxPoint x="420" y="416" as="sourcePoint" />
            <mxPoint x="420" y="376" as="targetPoint" />
          </mxGeometry>
        </mxCell>
        <mxCell id="iMMtd4yUTlGFSOH0DQqw-2" value="" style="endArrow=none;html=1;rounded=0;" edge="1" parent="1">
          <mxGeometry width="50" height="50" relative="1" as="geometry">
            <mxPoint x="440" y="406" as="sourcePoint" />
            <mxPoint x="440" y="386" as="targetPoint" />
          </mxGeometry>
        </mxCell>
        <mxCell id="iMMtd4yUTlGFSOH0DQqw-3" value="" style="endArrow=none;html=1;rounded=0;" edge="1" parent="1">
          <mxGeometry width="50" height="50" relative="1" as="geometry">
            <mxPoint x="440" y="386" as="sourcePoint" />
            <mxPoint x="420" y="376" as="targetPoint" />
          </mxGeometry>
        </mxCell>
        <mxCell id="iMMtd4yUTlGFSOH0DQqw-4" value="" style="endArrow=none;html=1;rounded=0;" edge="1" parent="1">
          <mxGeometry width="50" height="50" relative="1" as="geometry">
            <mxPoint x="420" y="416" as="sourcePoint" />
            <mxPoint x="440" y="406" as="targetPoint" />
          </mxGeometry>
        </mxCell>
        <mxCell id="iMMtd4yUTlGFSOH0DQqw-5" value="" style="endArrow=none;html=1;rounded=0;" edge="1" parent="1">
          <mxGeometry width="50" height="50" relative="1" as="geometry">
            <mxPoint x="440" y="396" as="sourcePoint" />
            <mxPoint x="460" y="396" as="targetPoint" />
          </mxGeometry>
        </mxCell>
        <mxCell id="iMMtd4yUTlGFSOH0DQqw-6" value="" style="endArrow=none;html=1;rounded=0;" edge="1" parent="1">
          <mxGeometry width="50" height="50" relative="1" as="geometry">
            <mxPoint x="400" y="406" as="sourcePoint" />
            <mxPoint x="420" y="406" as="targetPoint" />
          </mxGeometry>
        </mxCell>
        <mxCell id="iMMtd4yUTlGFSOH0DQqw-7" value="" style="endArrow=none;html=1;rounded=0;" edge="1" parent="1">
          <mxGeometry width="50" height="50" relative="1" as="geometry">
            <mxPoint x="400" y="386" as="sourcePoint" />
            <mxPoint x="420" y="386" as="targetPoint" />
          </mxGeometry>
        </mxCell>
        <mxCell id="iMMtd4yUTlGFSOH0DQqw-8" value="&lt;font style=&quot;font-size: 10px;&quot;&gt;1&lt;/font&gt;" style="text;html=1;align=center;verticalAlign=middle;resizable=0;points=[];autosize=1;strokeColor=none;fillColor=none;" vertex="1" parent="1">
          <mxGeometry x="410" y="370" width="30" height="30" as="geometry" />
        </mxCell>
        <mxCell id="iMMtd4yUTlGFSOH0DQqw-9" value="&lt;font style=&quot;font-size: 10px;&quot;&gt;0&lt;/font&gt;" style="text;html=1;align=center;verticalAlign=middle;resizable=0;points=[];autosize=1;strokeColor=none;fillColor=none;" vertex="1" parent="1">
          <mxGeometry x="410" y="389" width="30" height="30" as="geometry" />
        </mxCell>
        <mxCell id="iMMtd4yUTlGFSOH0DQqw-10" value="" style="endArrow=none;html=1;rounded=0;" edge="1" parent="1">
          <mxGeometry width="50" height="50" relative="1" as="geometry">
            <mxPoint x="420" y="566" as="sourcePoint" />
            <mxPoint x="420" y="486" as="targetPoint" />
          </mxGeometry>
        </mxCell>
        <mxCell id="iMMtd4yUTlGFSOH0DQqw-11" value="" style="endArrow=none;html=1;rounded=0;" edge="1" parent="1">
          <mxGeometry width="50" height="50" relative="1" as="geometry">
            <mxPoint x="450" y="546" as="sourcePoint" />
            <mxPoint x="450" y="506" as="targetPoint" />
          </mxGeometry>
        </mxCell>
        <mxCell id="iMMtd4yUTlGFSOH0DQqw-12" value="" style="endArrow=none;html=1;rounded=0;" edge="1" parent="1">
          <mxGeometry width="50" height="50" relative="1" as="geometry">
            <mxPoint x="450" y="506" as="sourcePoint" />
            <mxPoint x="420" y="486" as="targetPoint" />
          </mxGeometry>
        </mxCell>
        <mxCell id="iMMtd4yUTlGFSOH0DQqw-13" value="" style="endArrow=none;html=1;rounded=0;" edge="1" parent="1">
          <mxGeometry width="50" height="50" relative="1" as="geometry">
            <mxPoint x="420" y="566" as="sourcePoint" />
            <mxPoint x="450" y="546" as="targetPoint" />
          </mxGeometry>
        </mxCell>
        <mxCell id="iMMtd4yUTlGFSOH0DQqw-14" value="" style="endArrow=none;html=1;rounded=0;" edge="1" parent="1">
          <mxGeometry width="50" height="50" relative="1" as="geometry">
            <mxPoint x="450" y="526" as="sourcePoint" />
            <mxPoint x="470" y="526" as="targetPoint" />
          </mxGeometry>
        </mxCell>
        <mxCell id="iMMtd4yUTlGFSOH0DQqw-15" value="" style="endArrow=none;html=1;rounded=0;" edge="1" parent="1">
          <mxGeometry width="50" height="50" relative="1" as="geometry">
            <mxPoint x="400" y="546" as="sourcePoint" />
            <mxPoint x="420" y="546" as="targetPoint" />
          </mxGeometry>
        </mxCell>
        <mxCell id="iMMtd4yUTlGFSOH0DQqw-16" value="" style="endArrow=none;html=1;rounded=0;" edge="1" parent="1">
          <mxGeometry width="50" height="50" relative="1" as="geometry">
            <mxPoint x="400" y="506" as="sourcePoint" />
            <mxPoint x="420" y="506" as="targetPoint" />
          </mxGeometry>
        </mxCell>
        <mxCell id="iMMtd4yUTlGFSOH0DQqw-17" value="&lt;font style=&quot;font-size: 13px;&quot;&gt;1&lt;/font&gt;" style="text;html=1;align=center;verticalAlign=middle;resizable=0;points=[];autosize=1;strokeColor=none;fillColor=none;" vertex="1" parent="1">
          <mxGeometry x="414" y="491" width="30" height="30" as="geometry" />
        </mxCell>
        <mxCell id="iMMtd4yUTlGFSOH0DQqw-18" value="&lt;font style=&quot;font-size: 13px;&quot;&gt;0&lt;/font&gt;" style="text;html=1;align=center;verticalAlign=middle;resizable=0;points=[];autosize=1;strokeColor=none;fillColor=none;" vertex="1" parent="1">
          <mxGeometry x="414" y="530" width="30" height="30" as="geometry" />
        </mxCell>
      </root>
    </mxGraphModel>
  </diagram>
</mxfile>
